# This file uses centimeters as units for non-parametric coordinates.

v -0.418873 0.081127 0.500000
v -0.437252 0.125496 0.500000
v -0.481998 0.079017 0.482650
v -0.500000 0.059276 0.440724
v -0.482998 0.017359 0.441335
v -0.441942 0.000000 0.441942
v -0.421794 0.017922 0.483010
v -0.374504 0.062748 0.500000
v 0.418873 0.081127 0.500000
v 0.374504 0.062748 0.500000
v 0.420983 0.018002 0.482650
v 0.440724 0.000000 0.440724
v 0.482641 0.017002 0.441335
v 0.500000 0.058058 0.441942
v 0.482078 0.078206 0.483010
v 0.437252 0.125496 0.500000
v -0.418873 0.918873 0.500000
v -0.374504 0.937252 0.500000
v -0.420983 0.981998 0.482650
v -0.440724 1.000000 0.440724
v -0.482641 0.982998 0.441335
v -0.500000 0.941942 0.441942
v -0.482078 0.921794 0.483010
v -0.437252 0.874504 0.500000
v 0.418873 0.918873 0.500000
v 0.437252 0.874504 0.500000
v 0.481998 0.920983 0.482650
v 0.500000 0.940724 0.440724
v 0.482998 0.982641 0.441335
v 0.441942 1.000000 0.441942
v 0.421794 0.982078 0.483010
v 0.374504 0.937252 0.500000
v -0.482282 0.939471 -0.482282
v -0.500000 0.939506 -0.439506
v -0.482282 0.982282 -0.439506
v -0.439506 1.000000 -0.439506
v -0.439488 0.982282 -0.482282
v -0.439506 0.939506 -0.500000
v 0.482282 0.939488 -0.482282
v 0.439506 0.939506 -0.500000
v 0.439471 0.982282 -0.482282
v 0.439506 1.000000 -0.439506
v 0.482282 0.982282 -0.439506
v 0.500000 0.939506 -0.439506
v -0.482282 0.017718 -0.439506
v -0.500000 0.060494 -0.439506
v -0.482282 0.060512 -0.482282
v -0.439506 0.060494 -0.500000
v -0.439471 0.017718 -0.482282
v -0.439506 0.000000 -0.439506
v 0.482282 0.017718 -0.439506
v 0.439506 0.000000 -0.439506
v 0.439488 0.017718 -0.482282
v 0.439506 0.060494 -0.500000
v 0.482282 0.060529 -0.482282
v 0.500000 0.060494 -0.439506
v -0.229059 0.270941 0.540633
v -0.245869 0.311522 0.540633
v -0.280009 0.278759 0.510557
v -0.322994 0.237858 0.500000
v -0.305136 0.194613 0.500000
v -0.262069 0.176720 0.500000
v -0.221165 0.219861 0.510556
v -0.188478 0.254131 0.540633
v 0.229059 0.270941 0.540633
v 0.188478 0.254131 0.540633
v 0.221241 0.219991 0.510557
v 0.262142 0.177006 0.500000
v 0.305387 0.194864 0.500000
v 0.323280 0.237931 0.500000
v 0.280139 0.278835 0.510556
v 0.245869 0.311522 0.540633
v 0.229059 0.729059 0.540633
v 0.245869 0.688478 0.540633
v 0.280009 0.721241 0.510557
v 0.322994 0.762142 0.500000
v 0.305136 0.805387 0.500000
v 0.262069 0.823280 0.500000
v 0.221165 0.780139 0.510556
v 0.188478 0.745869 0.540633
v -0.229059 0.729059 0.540633
v -0.188478 0.745869 0.540633
v -0.221241 0.780009 0.510557
v -0.262142 0.822994 0.500000
v -0.305387 0.805136 0.500000
v -0.323280 0.762069 0.500000
v -0.280139 0.721165 0.510556
v -0.245869 0.688478 0.540633
v -0.030351 0.530351 0.821108
v -0.060494 0.500000 0.803462
v -0.030351 0.469649 0.821108
v 0.000000 0.439506 0.803462
v 0.030351 0.469649 0.821108
v 0.060494 0.500000 0.803462
v 0.030351 0.530351 0.821108
v 0.000000 0.560494 0.803462
v -0.464288 0.035912 0.482822
v 0.464088 0.035712 0.482822
v -0.464088 0.964288 0.482822
v 0.464288 0.964088 0.482822
v -0.474413 0.974407 -0.474421
v 0.474407 0.974413 -0.474421
v -0.474407 0.025587 -0.474421
v 0.474413 0.025593 -0.474421
v -0.262690 0.237174 0.510554
v 0.262826 0.237310 0.510554
v 0.262690 0.762825 0.510554
v -0.262826 0.762690 0.510554
v -0.000000 0.500000 0.838863
vt 0.062748 0.125496
vt 0.940724 0.059276
vt 0.058058 0.941942
vt 0.940724 0.940724
vt 0.058058 0.058058
vt 0.062748 0.874504
vt 0.125496 0.937252
vt 0.059276 0.059276
vt 0.874504 0.937252
vt 0.059276 0.940724
vt 0.060494 0.060494
vt 0.060494 0.939506
vt 0.939506 0.939506
vt 0.939506 0.939506
vt 0.939506 0.060494
vt 0.939506 0.060494
vt 0.060494 0.939506
vt 0.939506 0.939506
vt 0.176720 0.762069
vt 0.254131 0.311522
vt 0.237931 0.176720
vt 0.762142 0.177006
vt 0.500000 0.439506
vt 0.823280 0.237931
vt 0.822994 0.762142
vt 0.560494 0.500000
vt 0.762069 0.823280
vt 0.237858 0.822994
vt 0.500000 0.560494
vt 0.254132 0.688478
vt 0.439506 0.500000
vt 0.941942 0.058058
vt 0.060494 0.060494
vt 0.939506 0.060494
vt 0.060494 0.060494
vt 0.941942 0.941942
vt 0.060494 0.939506
vt 0.125496 0.062748
vt 0.874504 0.062748
vt 0.937252 0.125496
vt 0.937252 0.874504
vt 0.177006 0.237858
vt 0.311522 0.254132
vt 0.688478 0.254132
vt 0.745869 0.311522
vt 0.745869 0.688478
vt 0.688478 0.745869
vt 0.311522 0.745869
vt 0.075065 0.075030
vt 1.000000 0.049814
vt -0.000000 0.049814
vt -0.000000 0.949156
vt 0.949156 -0.000000
vt 0.049326 -0.000000
vt 0.049326 1.000000
vt 0.924970 0.075065
vt 0.950186 1.000000
vt 0.950186 -0.000000
vt 0.050844 -0.000000
vt 1.000000 0.949156
vt 1.000000 0.049326
vt -0.000000 0.049326
vt 0.075030 0.924935
vt 0.049814 -0.000000
vt 0.049814 1.000000
vt 0.949156 1.000000
vt -0.000000 0.050844
vt -0.000000 0.950674
vt 1.000000 0.950674
vt 0.924935 0.924970
vt -0.000000 0.950186
vt 1.000000 0.950186
vt 1.000000 0.050844
vt 0.050844 1.000000
vt 0.950674 1.000000
vt 0.950674 -0.000000
vt -0.000000 0.961499
vt -0.000000 0.038501
vt -0.000000 0.962088
vt 0.037912 1.000000
vt 0.038491 -0.000000
vt 0.038491 1.000000
vt 1.000000 0.038491
vt 1.000000 0.961509
vt 0.961499 1.000000
vt 0.961499 -0.000000
vt 0.962088 1.000000
vt 1.000000 0.962088
vt 0.037912 -0.000000
vt -0.000000 0.037912
vt -0.000000 0.961509
vt -0.000000 0.038491
vt 0.038501 -0.000000
vt 0.038501 1.000000
vt 1.000000 0.037912
vt 0.962088 -0.000000
vt 0.961509 1.000000
vt 0.961509 -0.000000
vt 1.000000 0.038501
vt 1.000000 0.961499
vt 0.274437 0.274450
vt 0.214796 0.277483
vt 0.193688 0.193445
vt 0.277542 0.214685
vt 0.725550 0.274437
vt 0.722516 0.214796
vt 0.806555 0.193688
vt 0.785315 0.277542
vt 0.725563 0.725550
vt 0.785204 0.722517
vt 0.806312 0.806555
vt 0.722458 0.785315
vt 0.274450 0.725563
vt 0.277484 0.785204
vt 0.193445 0.806312
vt 0.214685 0.722458
vt 0.475814 0.524186
vt 0.475814 0.475814
vt 0.524186 0.475814
vt 0.524186 0.524186
vt 1.000000 0.000000
vt 0.000000 1.000000
vt 0.000000 0.000000
vt 1.000000 1.000000
vt 0.000000 0.000000
vt 1.000000 0.000000
vt 0.000000 0.000000
vt 1.000000 1.000000
vt 0.000000 1.000000
vt 0.000000 1.000000
vt 1.000000 0.000000
vt 1.000000 1.000000
vt 0.000000 1.000000
vt 0.000000 1.000000
vt 0.000000 0.000000
vt 1.000000 0.000000
vt 1.000000 1.000000
vt 1.000000 1.000000
vt 0.000000 0.000000
vt 0.000000 1.000000
vt 0.000000 0.000000
vt 1.000000 0.000000
vt 1.000000 1.000000
vt 1.000000 0.000000
vt 0.225473 0.225473
vt 0.774527 0.225473
vt 0.774527 0.774527
vt 0.225473 0.774527
vt 0.500000 0.500000
vn -0.203520 -0.002363 0.979068
vn -0.075726 -0.073769 0.994396
vn -0.022271 -0.022260 0.999504
vn -0.025254 -0.001795 0.999679
vn -0.002143 -0.203874 0.978995
vn -0.001774 -0.025226 0.999680
vn -0.999700 -0.019306 0.015074
vn -0.791116 -0.014826 0.611487
vn -0.792465 0.014402 0.609747
vn -0.999701 0.019295 0.015002
vn -0.203874 0.002143 0.978995
vn -0.019295 -0.999701 0.015002
vn -0.708442 -0.705358 0.024099
vn -0.710365 -0.703694 -0.014016
vn -0.018662 -0.999648 -0.018865
vn -0.999651 -0.018487 -0.018868
vn -0.014402 -0.792465 0.609748
vn 0.014826 -0.791116 0.611487
vn 0.002363 -0.203520 0.979068
vn 0.019306 -0.999700 0.015074
vn 0.073769 -0.075726 0.994396
vn 0.022260 -0.022271 0.999504
vn 0.001795 -0.025254 0.999680
vn 0.203874 -0.002143 0.978995
vn 0.025226 -0.001774 0.999680
vn 0.999701 -0.019295 0.015002
vn 0.705358 -0.708442 0.024099
vn 0.703694 -0.710365 -0.014016
vn 0.999648 -0.018662 -0.018865
vn 0.018487 -0.999651 -0.018868
vn 0.792465 -0.014402 0.609748
vn 0.791115 0.014826 0.611487
vn 0.203520 0.002363 0.979068
vn 0.999700 0.019306 0.015074
vn -0.002363 0.203520 0.979068
vn -0.073769 0.075726 0.994396
vn -0.022260 0.022271 0.999504
vn -0.001795 0.025253 0.999679
vn -0.025226 0.001774 0.999680
vn -0.019306 0.999700 0.015074
vn -0.014826 0.791116 0.611486
vn 0.014402 0.792465 0.609747
vn 0.019295 0.999701 0.015002
vn 0.002143 0.203874 0.978995
vn -0.705358 0.708442 0.024099
vn -0.703694 0.710365 -0.014016
vn -0.999648 0.018662 -0.018865
vn -0.018487 0.999651 -0.018868
vn 0.075726 0.073769 0.994396
vn 0.022271 0.022260 0.999504
vn 0.025254 0.001795 0.999679
vn 0.001774 0.025226 0.999680
vn 0.708442 0.705358 0.024099
vn 0.710365 0.703694 -0.014016
vn 0.018662 0.999648 -0.018865
vn 0.999651 0.018487 -0.018868
vn -0.707046 0.013001 -0.707048
vn -0.707045 -0.013011 -0.707049
vn -0.018909 0.018914 -0.999642
vn -0.018914 -0.018909 -0.999642
vn -0.013011 0.707045 -0.707049
vn 0.013001 0.707046 -0.707048
vn 0.018914 0.018909 -0.999642
vn 0.707045 0.013011 -0.707049
vn 0.707046 -0.013001 -0.707048
vn 0.018909 -0.018914 -0.999642
vn -0.013001 -0.707046 -0.707048
vn 0.013011 -0.707045 -0.707049
vn -0.743113 -0.068468 0.665654
vn -0.479820 -0.479744 0.734588
vn -0.471650 -0.471650 0.745045
vn -0.761884 -0.000000 0.647713
vn -0.068430 -0.743116 0.665655
vn 0.000000 -0.761884 0.647713
vn -0.360154 -0.016363 0.932749
vn -0.360242 0.016159 0.932719
vn -0.743116 0.068431 0.665655
vn -0.016159 -0.360241 0.932719
vn 0.016363 -0.360154 0.932749
vn 0.068468 -0.743113 0.665653
vn 0.479743 -0.479820 0.734588
vn 0.471650 -0.471650 0.745045
vn 0.743116 -0.068431 0.665655
vn 0.761885 -0.000000 0.647713
vn 0.360241 -0.016159 0.932719
vn 0.360154 0.016363 0.932749
vn 0.743113 0.068468 0.665654
vn 0.479820 0.479743 0.734588
vn 0.471650 0.471650 0.745045
vn 0.068430 0.743116 0.665655
vn -0.000000 0.761884 0.647713
vn 0.016159 0.360242 0.932719
vn -0.016363 0.360154 0.932749
vn -0.068468 0.743114 0.665653
vn -0.479743 0.479820 0.734588
vn -0.471650 0.471650 0.745045
vn -0.432186 -0.418955 0.798556
vn 0.418955 -0.432186 0.798556
vn -0.418956 0.432187 0.798555
vn 0.432187 0.418955 0.798556
vn -0.577348 0.577206 -0.577497
vn 0.577206 0.577348 -0.577497
vn -0.577206 -0.577349 -0.577496
vn 0.577349 -0.577206 -0.577496
vn -0.218750 -0.218636 0.950971
vn 0.218636 -0.218749 0.950972
vn 0.218750 0.218636 0.950972
vn -0.218636 0.218749 0.950972
vn -0.000000 -0.000000 1.000000
s 1
f 2/1/1 1/49/2 61/103/3 60/42/4
f 1/49/2 8/38/5 62/21/6 61/103/3
f 4/2/7 3/50/8 23/69/9 22/36/10
f 3/51/8 2/1/1 24/6/11 23/68/9
f 6/3/12 5/52/13 45/90/14 50/35/15
f 5/53/13 4/2/7 46/11/16 45/89/14
f 8/38/5 7/54/17 11/58/18 10/39/19
f 7/55/17 6/3/12 12/4/20 11/57/18
f 10/39/19 9/56/21 69/107/22 68/22/23
f 9/56/21 16/40/24 70/24/25 69/107/22
f 14/5/26 13/59/27 51/96/28 56/15/29
f 13/60/27 12/4/20 52/16/30 51/95/28
f 16/40/24 15/61/31 27/72/32 26/41/33
f 15/62/31 14/5/26 28/10/34 27/71/32
f 18/7/35 17/63/36 85/115/37 84/28/38
f 17/63/36 24/6/11 86/19/39 85/115/37
f 20/8/40 19/64/41 31/76/42 30/32/43
f 19/65/41 18/7/35 32/9/44 31/75/42
f 22/36/10 21/66/45 35/80/46 34/37/47
f 21/67/45 20/8/40 36/12/48 35/79/46
f 26/41/33 25/70/49 77/111/50 76/25/51
f 25/70/49 32/9/44 78/27/52 77/111/50
f 30/32/43 29/73/53 43/88/54 42/13/55
f 29/74/53 28/10/34 44/14/56 43/87/54
f 34/37/47 33/77/57 47/92/58 46/11/16
f 33/78/57 38/33/59 48/17/60 47/91/58
f 38/33/59 37/81/61 41/86/62 40/34/63
f 37/82/61 36/12/48 42/13/55 41/85/62
f 40/34/63 39/83/64 55/100/65 54/18/66
f 39/84/64 44/14/56 56/15/29 55/99/65
f 50/35/15 49/93/67 53/98/68 52/16/30
f 49/94/67 48/17/60 54/18/66 53/97/68
f 58/20/69 57/101/70 91/118/71 90/31/72
f 57/101/70 64/43/73 92/23/74 91/118/71
f 60/42/4 59/102/75 87/116/76 86/19/39
f 59/102/75 58/20/69 88/30/77 87/116/76
f 64/43/73 63/104/78 67/106/79 66/44/80
f 63/104/78 62/21/6 68/22/23 67/106/79
f 66/44/80 65/105/81 93/119/82 92/23/74
f 65/105/81 72/45/83 94/26/84 93/119/82
f 72/45/83 71/108/85 75/110/86 74/46/87
f 71/108/85 70/24/25 76/25/51 75/110/86
f 74/46/87 73/109/88 95/120/89 94/26/84
f 73/109/88 80/47/90 96/29/91 95/120/89
f 80/47/90 79/112/92 83/114/93 82/48/94
f 79/112/92 78/27/52 84/28/38 83/114/93
f 82/48/94 81/113/95 89/117/96 96/29/91
f 81/113/95 88/30/77 90/31/72 89/117/96
f 20/8/40 30/32/43 42/13/55 36/12/48
f 38/33/59 40/34/63 54/18/66 48/17/60
f 50/35/15 52/16/30 12/4/20 6/3/12
f 14/5/26 56/15/29 44/14/56 28/10/34
f 46/11/16 4/2/7 22/36/10 34/37/47
f 8/38/5 10/39/19 68/22/23 62/21/6
f 16/40/24 26/41/33 76/25/51 70/24/25
f 32/9/44 18/7/35 84/28/38 78/27/52
f 24/6/11 2/1/1 60/42/4 86/19/39
f 64/43/73 66/44/80 92/23/74
f 72/45/83 74/46/87 94/26/84
f 80/47/90 82/48/94 96/29/91
f 88/30/77 58/20/69 90/31/72
f 7/54/17 8/38/5 1/49/2 97/123/97
f 1/49/2 2/1/1 3/51/8 97/123/97
f 3/50/8 4/2/7 5/53/13 97/121/97
f 5/52/13 6/3/12 7/55/17 97/122/97
f 15/61/31 16/40/24 9/56/21 98/126/98
f 9/56/21 10/39/19 11/58/18 98/126/98
f 11/57/18 12/4/20 13/60/27 98/124/98
f 13/59/27 14/5/26 15/62/31 98/125/98
f 23/68/9 24/6/11 17/63/36 99/129/99
f 17/63/36 18/7/35 19/65/41 99/129/99
f 19/64/41 20/8/40 21/67/45 99/127/99
f 21/66/45 22/36/10 23/69/9 99/128/99
f 31/75/42 32/9/44 25/70/49 100/132/100
f 25/70/49 26/41/33 27/72/32 100/132/100
f 27/71/32 28/10/34 29/74/53 100/130/100
f 29/73/53 30/32/43 31/76/42 100/131/100
f 37/81/61 38/33/59 33/78/57 101/135/101
f 33/77/57 34/37/47 35/80/46 101/133/101
f 35/79/46 36/12/48 37/82/61 101/134/101
f 43/87/54 44/14/56 39/84/64 102/138/102
f 39/83/64 40/34/63 41/86/62 102/136/102
f 41/85/62 42/13/55 43/88/54 102/137/102
f 49/93/67 50/35/15 45/90/14 103/141/103
f 45/89/14 46/11/16 47/92/58 103/139/103
f 47/91/58 48/17/60 49/94/67 103/140/103
f 55/99/65 56/15/29 51/96/28 104/144/104
f 51/95/28 52/16/30 53/98/68 104/142/104
f 53/97/68 54/18/66 55/100/65 104/143/104
f 63/104/78 64/43/73 57/101/70 105/145/105
f 57/101/70 58/20/69 59/102/75 105/145/105
f 59/102/75 60/42/4 61/103/3 105/145/105
f 61/103/3 62/21/6 63/104/78 105/145/105
f 71/108/85 72/45/83 65/105/81 106/146/106
f 65/105/81 66/44/80 67/106/79 106/146/106
f 67/106/79 68/22/23 69/107/22 106/146/106
f 69/107/22 70/24/25 71/108/85 106/146/106
f 79/112/92 80/47/90 73/109/88 107/147/107
f 73/109/88 74/46/87 75/110/86 107/147/107
f 75/110/86 76/25/51 77/111/50 107/147/107
f 77/111/50 78/27/52 79/112/92 107/147/107
f 87/116/76 88/30/77 81/113/95 108/148/108
f 81/113/95 82/48/94 83/114/93 108/148/108
f 83/114/93 84/28/38 85/115/37 108/148/108
f 85/115/37 86/19/39 87/116/76 108/148/108
f 95/120/89 96/29/91 89/117/96 109/149/109
f 89/117/96 90/31/72 91/118/71 109/149/109
f 91/118/71 92/23/74 93/119/82 109/149/109
f 93/119/82 94/26/84 95/120/89 109/149/109
